# xmcd
#
# Track frame offsets: 
#        150
#        11867
#        33257
#        43152
#        60215
#        88484
#        102705
#        129246
#        162370
#        179544
#
# Disc length: 2804 seconds
#
# Revision: 0
# Processed by: cddbd v1.5.2PL0 Copyright (c) Steve Scherf et al.
# Submitted via: ExactAudioCopy v0.99pb4
#
DISCID=860af20a
DTITLE=Elzhi - Elmatic
DYEAR=2011
DGENRE=Hip-Hop
TTITLE0=The Genesis
TTITLE1=Detroit State of Mind
TTITLE2=Halftime
TTITLE3=Memory Lane
TTITLE4=The World Is Yours
TTITLE5=Represent
TTITLE6=Life's a Bitch feat. Royce Da 5'9" and Stokley Williams
TTITLE7=One Love
TTITLE8=It Ain't Hard To Tell
TTITLE9=Pete Rock Shout - Verbal Intercourse Pt. 2 - Detroit State Of 
TTITLE9=Mind (Remix)
EXTD=
EXTT0=
EXTT1=
EXTT2=
EXTT3=
EXTT4=
EXTT5=
EXTT6=
EXTT7=
EXTT8=
EXTT9=
PLAYORDER=
